<svg viewBox="0 0 162 28" fill="none" xmlns="http://www.w3.org/2000/svg">
    <g clip-path="url(#clip0_1251_1106)">
        <path fill-rule="evenodd" clip-rule="evenodd" d="M25.9173 1.68269H19.4877L0 21.4038H6.42962L25.9173 1.68269Z" fill="#231F20"/>
        <path fill-rule="evenodd" clip-rule="evenodd" d="M17.7643 1.68269L8.88216 10.7019L0 1.68269H17.7643Z" fill="#ED1C24"/>
        <path fill-rule="evenodd" clip-rule="evenodd" d="M8.15308 21.4038L17.0352 12.3846L25.9174 21.4038H8.15308Z" fill="#ED1C24"/>
        <path d="M111.027 12.25C110.474 11.8178 109.844 11.4979 109.171 11.3077L107.315 10.9038V10.7692C107.93 10.6282 108.53 10.4253 109.105 10.1635C109.617 9.92923 110.087 9.61086 110.497 9.22115C110.942 8.82863 111.303 8.34755 111.557 7.80769C111.828 7.24163 111.964 6.61934 111.955 5.99039C111.969 5.28002 111.785 4.58002 111.425 3.97115C111.106 3.41275 110.649 2.94869 110.099 2.625C109.523 2.28069 108.896 2.03084 108.243 1.88462C107.589 1.7443 106.923 1.67659 106.255 1.68269H97.3061V2.69231C97.5993 2.6798 97.892 2.72552 98.1679 2.82692L99.0958 3.09615C99.341 3.24477 99.546 3.45293 99.6924 3.70192C99.8014 3.95596 99.847 4.23341 99.825 4.50961V18.7115C99.8242 19.0083 99.7795 19.3033 99.6924 19.5865C99.5418 19.8146 99.3365 19.9999 99.0958 20.125L98.1679 20.3269H97.1736V21.3365H106.387C107.196 21.3661 108.003 21.2522 108.773 21C109.524 20.7974 110.239 20.4796 110.895 20.0577C111.501 19.5978 112.018 19.0271 112.419 18.375C112.832 17.6378 113.038 16.7998 113.016 15.9519C113.031 15.1475 112.825 14.3547 112.419 13.6635C112.089 13.0737 111.608 12.5854 111.027 12.25ZM102.742 2.82692H104.995C105.498 2.78751 106.003 2.85057 106.481 3.0124C106.959 3.17423 107.4 3.43156 107.779 3.76922C108.368 4.48428 108.675 5.3955 108.641 6.32693C108.653 6.89452 108.586 7.46096 108.442 8.00962C108.291 8.48374 108.043 8.91973 107.713 9.28846C107.379 9.69094 106.944 9.99344 106.453 10.1635C105.837 10.3896 105.186 10.5035 104.531 10.5H102.742V2.82692ZM108.508 19.1154C108.106 19.5344 107.62 19.8597 107.082 20.0689C106.544 20.2781 105.968 20.3661 105.393 20.3269C104.72 20.3722 104.049 20.2078 103.471 19.8558C103.245 19.7317 103.057 19.5465 102.928 19.3208C102.8 19.0951 102.735 18.8376 102.742 18.5769V11.5769H105.128C105.727 11.5373 106.328 11.618 106.897 11.8143C107.466 12.0107 107.991 12.3188 108.442 12.7212C108.83 13.091 109.138 13.54 109.343 14.0388C109.549 14.5375 109.648 15.0748 109.635 15.6154C109.694 16.8828 109.293 18.1281 108.508 19.1154Z" fill="#231F20"/>
        <path d="M52.4313 20.125L51.4371 19.3846C51.0272 19.0151 50.6501 18.6097 50.3102 18.1731L47.46 14.3365L44.7423 10.7019L47.1948 7.67309L49.4485 4.98077L50.5091 3.76923C50.8504 3.43908 51.2572 3.18667 51.7022 3.02885L52.6965 2.75961H53.6907V1.75H45.6703V2.75961C46.3225 2.71279 46.9772 2.80449 47.5925 3.02885C47.9902 3.16346 48.1228 3.36538 48.1228 3.63461C48.1228 3.90384 47.7251 4.71154 46.8634 5.85577C46.0017 7 45.0737 8.27886 43.9469 9.69232L42.2898 7.53846L41.1629 5.78846C40.8085 5.3495 40.4977 4.87605 40.2349 4.375C40.0409 4.11641 39.9051 3.81771 39.8372 3.5C39.8372 3.23077 40.1686 3.02884 40.8315 2.96154L42.6212 2.75961V1.75H32.6122V2.75961H33.6727L34.667 3.02885L35.6613 3.63461L36.7218 4.91347L39.6384 8.74999L41.8921 11.7788L39.1744 15.0769L36.6556 18.1731L35.7276 19.25L34.4682 20.0577L33.4076 20.3269L32.4133 20.4615V21.4039H40.5001V20.4615C39.8003 20.4832 39.1029 20.3689 38.4452 20.125C38.3056 20.0806 38.1843 19.9904 38.1004 19.8687C38.0164 19.7469 37.9746 19.6004 37.9812 19.4519C37.9812 19.1827 38.5778 18.3077 39.7047 16.8269C40.8315 15.3461 41.8258 14 42.7538 12.9231L44.4109 15.2115L45.8691 17.2981C46.1908 17.7702 46.4787 18.2651 46.7308 18.7789C46.9249 19.0375 47.0606 19.3361 47.1285 19.6538C47.1285 19.9231 46.8634 20.0577 46.3331 20.1923L44.2783 20.4615V21.4039H54.4199V20.4615H53.3593C53.0316 20.4108 52.7165 20.2966 52.4313 20.125Z" fill="#231F20"/>
        <path d="M126.538 18.7115V11.8461C126.538 10.9038 126.471 8.07692 123.223 7.47115C122.56 7.33653 119.71 6.93269 117.457 8.27885C116.971 8.52169 116.542 8.86572 116.197 9.28846C115.882 9.64083 115.695 10.0921 115.667 10.5673C115.667 10.7706 115.706 10.9719 115.783 11.1597C115.86 11.3475 115.972 11.5182 116.113 11.662C116.255 11.8057 116.423 11.9197 116.608 11.9975C116.793 12.0753 116.991 12.1154 117.191 12.1154C119.313 12.1154 118.981 10.2981 118.915 9.89423C118.793 9.61413 118.704 9.32045 118.65 9.01924C119.269 8.52158 120.05 8.28101 120.837 8.34616C123.157 8.34616 123.687 10.0962 123.687 11.3077V12.6538C122.754 13.0385 121.803 13.3754 120.837 13.6635C119.246 14.2019 116.065 14.7404 115.203 16.8942C115.045 17.3723 114.956 17.871 114.938 18.375C114.948 18.8365 115.054 19.2906 115.248 19.708C115.442 20.1254 115.72 20.4968 116.065 20.7981C116.837 21.4672 117.835 21.8051 118.849 21.7404C119.741 21.7748 120.629 21.612 121.453 21.2634C122.277 20.9147 123.017 20.3885 123.621 19.7212H123.754C123.788 20.0245 123.882 20.3178 124.03 20.5837C124.178 20.8495 124.377 21.0826 124.615 21.2692C125.194 21.6212 125.865 21.7856 126.538 21.7404L127.731 21.6058L128.99 21.2019V20.5288C127.267 20.5288 126.538 19.5192 126.538 18.7115ZM123.687 18.5769C123.246 19.0329 122.757 19.4391 122.229 19.7885C121.633 20.0947 120.975 20.256 120.307 20.2596C119.711 20.2694 119.129 20.0802 118.65 19.7212C118.427 19.4911 118.253 19.217 118.139 18.916C118.025 18.615 117.973 18.2934 117.987 17.9712C117.999 17.4426 118.16 16.9286 118.451 16.4904C118.746 16.0115 119.156 15.6176 119.644 15.3462C120.214 15.0013 120.813 14.7084 121.434 14.4711L123.687 13.7981V18.5769Z" fill="#231F20"/>
        <path d="M67.0802 18.7115V11.8461C67.0802 10.9038 67.0802 8.07692 63.8322 7.47115C63.1694 7.33653 60.3191 6.93269 58.0655 8.27885C57.5804 8.52169 57.1512 8.86572 56.806 9.28846C56.4908 9.64083 56.3037 10.0921 56.2758 10.5673C56.2754 10.9665 56.4269 11.3504 56.6986 11.6388C56.9703 11.9273 57.3413 12.098 57.734 12.1154C59.9214 12.1154 59.59 10.2981 59.5237 9.89423C59.4018 9.61413 59.3129 9.32045 59.2586 9.01924C59.8571 8.53192 60.6145 8.29158 61.3797 8.34616C63.766 8.34616 64.2299 10.0962 64.2299 11.3077V12.6538C63.3253 13.0534 62.3952 13.3907 61.446 13.6635C59.8551 14.2019 56.6735 14.7404 55.8118 16.8942C55.6538 17.3723 55.5645 17.871 55.5466 18.375C55.557 18.8365 55.6627 19.2906 55.8568 19.708C56.0509 20.1254 56.3291 20.4968 56.6735 20.7981C57.4219 21.4632 58.3984 21.8017 59.3912 21.7404C60.2926 21.7712 61.1901 21.6072 62.0243 21.2591C62.8586 20.9109 63.6104 20.3867 64.2299 19.7212H64.2962C64.4148 20.3327 64.7437 20.8814 65.2242 21.2692C65.7823 21.6119 66.429 21.7761 67.0802 21.7404L68.3396 21.6058C68.7524 21.5223 69.1532 21.3866 69.5327 21.2019V20.5288C67.8756 20.5288 67.0802 19.5192 67.0802 18.7115ZM64.2299 18.5769C63.8273 19.0482 63.3582 19.4565 62.838 19.7885C62.2418 20.0947 61.5838 20.256 60.9157 20.2596C60.3201 20.2694 59.7379 20.0802 59.2586 19.7212C59.036 19.4911 58.8623 19.217 58.7483 18.916C58.6343 18.615 58.5824 18.2934 58.5957 17.9712C58.5756 17.4377 58.7397 16.9139 59.0597 16.4904C59.3544 16.0115 59.7652 15.6176 60.2529 15.3462C60.8227 15.0013 61.4216 14.7084 62.0426 14.4711L64.2299 13.7981V18.5769Z" fill="#231F20"/>
        <path d="M75.5646 19.0481V0.201927L75.3658 1.90735e-06L69.6653 0.201927V1.07692C72.6481 1.07692 72.7144 2.35577 72.7144 3.16346V19.0481C72.7144 20.1923 71.455 20.5288 70.4607 20.5288V21.4039H77.8183V20.5288C76.824 20.5288 75.5646 20.1923 75.5646 19.0481Z" fill="#231F20"/>
        <path d="M159.415 19.1154L154.841 12.9231L157.493 10.4327C157.493 10.4327 159.415 8.61539 160.807 8.61539V7.67309H154.908V8.61539C156.034 8.61539 156.432 8.95192 156.565 9.22115C156.697 9.49038 155.836 10.6346 155.836 10.6346L151.858 14.6058V0.201927L151.66 1.90735e-06L146.025 0.201927V1.07692C148.942 1.07692 149.008 2.35577 149.008 3.16346V19.0481C149.008 20.1923 147.749 20.5288 146.755 20.5288V21.4039H154.112V20.5288C153.118 20.5288 151.858 20.1923 151.858 19.0481V15.6154L152.985 14.5385L157.824 21.4039H162V20.5288C161.482 20.5612 160.966 20.446 160.509 20.1963C160.052 19.9465 159.673 19.5722 159.415 19.1154Z" fill="#231F20"/>
        <path d="M93.6604 26.6538C93.5235 26.6269 93.3938 26.571 93.2796 26.4898C93.1654 26.4087 93.0693 26.304 92.9975 26.1827C92.8628 25.9116 92.7945 25.6114 92.7987 25.3077V12.25C92.7987 11.4423 92.8649 10.5673 92.9312 9.62501C92.9975 8.6827 92.9975 7.74038 93.0638 7.0673L92.2021 6.9327L90.8764 8.74999L90.2136 8.34616C89.4949 7.99103 88.7388 7.72005 87.9599 7.53846C87.3955 7.40111 86.8168 7.33332 86.2365 7.33655C85.3064 7.35191 84.3863 7.5342 83.5188 7.875C82.6674 8.19925 81.8812 8.67822 81.1988 9.28847C80.537 9.94767 79.9981 10.723 79.608 11.5769C79.2014 12.4614 78.9974 13.4279 79.0114 14.4039C79.0147 15.437 79.1941 16.4617 79.5417 17.4327C79.8235 18.2899 80.2828 19.0758 80.8888 19.7375C81.4948 20.3993 82.2334 20.9216 83.0548 21.2692C83.8728 21.6211 84.7515 21.8042 85.6399 21.8077C86.1122 21.8279 86.5841 21.7594 87.0319 21.6058C87.4499 21.508 87.8518 21.3494 88.225 21.1346C88.5679 21.0227 88.884 20.8393 89.153 20.5962L89.8821 20.0577H89.9484V25.5769C89.9446 25.8581 89.8765 26.1346 89.7496 26.3846C89.6855 26.5122 89.5916 26.622 89.476 26.7041C89.3604 26.7863 89.2267 26.8383 89.0867 26.8558L88.2913 26.9904H87.3633V27.9327H95.5163V27.0577L94.5883 26.9231C94.2651 26.8933 93.9503 26.8019 93.6604 26.6538ZM89.9484 18.8461C89.5652 19.2556 89.1171 19.5969 88.6227 19.8558C88.0444 20.138 87.4082 20.2764 86.7667 20.2596C86.0388 20.2889 85.3137 20.1508 84.6456 19.8558C84.0796 19.5602 83.5998 19.1193 83.2537 18.5769C82.8759 18.0442 82.585 17.4534 82.3919 16.8269C82.2537 16.1177 82.1871 15.396 82.1931 14.6731C82.0964 13.0569 82.5148 11.4521 83.3862 10.0961C83.7016 9.58141 84.141 9.15681 84.6629 8.86239C85.1848 8.56797 85.772 8.41345 86.369 8.41345C86.8624 8.40486 87.3542 8.47297 87.8273 8.61539L88.8879 9.15384C89.1426 9.36713 89.3658 9.61647 89.5507 9.89423C89.7348 10.134 89.87 10.4086 89.9484 10.7019V18.8461Z" fill="#231F20"/>
        <path d="M143.639 19.0481V11.8462C143.639 10.4327 143.44 9.42308 142.711 8.54808C141.982 7.67308 141.253 7.33655 139.529 7.33655C137.806 7.33655 135.221 9.42309 135.022 9.69232H134.956V7.74038L134.757 7.53846L129.587 7.875V8.61539C131.708 8.61539 132.105 9.625 132.105 10.5V19.0481C132.105 20.1923 130.846 20.5288 129.852 20.5288V21.4039H137.011V20.5288C136.016 20.5288 134.956 20.1923 134.956 19.0481V11.0385C135.302 10.4162 135.802 9.89632 136.406 9.53037C137.011 9.16443 137.699 8.96504 138.403 8.95193C139.728 8.95193 140.789 9.96155 140.789 12.0481V19.0481C140.789 20.1923 139.728 20.5288 138.734 20.5288V21.4039H145.893V20.5288C144.898 20.5288 143.639 20.1923 143.639 19.0481Z" fill="#231F20"/>
    </g>
    <defs>
        <clipPath id="clip0_1251_1106">
            <rect width="162" height="28" fill="white"/>
        </clipPath>
    </defs>
</svg>
